<svg xmlns="http://www.w3.org/2000/svg" xmlns:svg="http://www.w3.org/2000/svg" id="svg2" width="732" height="1740.34" version="1.1"><defs id="defs4"><marker id="DiamondM" orient="auto" overflow="visible" refX="0" refY="0"><path id="path3971" fill-rule="evenodd" stroke="#000" stroke-width="1pt" d="M 0,-7.0710768 -7.0710894,0 0,7.0710589 7.0710462,0 0,-7.0710768 z" transform="scale(0.4,0.4)"/></marker><marker id="DotM" orient="auto" overflow="visible" refX="0" refY="0"><path id="path3953" fill-rule="evenodd" stroke="#000" stroke-width="1pt" d="m -2.5,-1 c 0,2.76 -2.24,5 -5,5 -2.76,0 -5,-2.24 -5,-5 0,-2.76 2.24,-5 5,-5 2.76,0 5,2.24 5,5 z" transform="matrix(0.4,0,0,0.4,2.96,0.4)"/></marker><marker id="TriangleOutM" orient="auto" overflow="visible" refX="0" refY="0"><path id="path4034" fill-rule="evenodd" stroke="#000" stroke-width="1pt" d="m 5.77,0 -8.65,5 0,-10 8.65,5 z" transform="scale(0.4,0.4)"/></marker><marker id="TriangleOutS" orient="auto" overflow="visible" refX="0" refY="0"><path id="path4037" fill-rule="evenodd" stroke="#000" stroke-width="1pt" d="m 5.77,0 -8.65,5 0,-10 8.65,5 z" transform="scale(0.2,0.2)"/></marker><marker id="DiamondS" orient="auto" overflow="visible" refX="0" refY="0"><path id="path3878" fill-rule="evenodd" stroke="#000" stroke-width="1pt" d="M 0,-7.0710768 -7.0710894,0 0,7.0710589 7.0710462,0 0,-7.0710768 z" transform="scale(0.2,0.2)"/></marker><marker id="DotS" orient="auto" overflow="visible" refX="0" refY="0"><path id="path3860" fill-rule="evenodd" stroke="#000" stroke-width="1pt" d="m -2.5,-1 c 0,2.76 -2.24,5 -5,5 -2.76,0 -5,-2.24 -5,-5 0,-2.76 2.24,-5 5,-5 2.76,0 5,2.24 5,5 z" transform="matrix(0.2,0,0,0.2,1.48,0.2)"/></marker><marker id="DotL" orient="auto" overflow="visible" refX="0" refY="0"><path id="path3854" fill-rule="evenodd" stroke="#000" stroke-width="1pt" d="m -2.5,-1 c 0,2.76 -2.24,5 -5,5 -2.76,0 -5,-2.24 -5,-5 0,-2.76 2.24,-5 5,-5 2.76,0 5,2.24 5,5 z" transform="matrix(0.8,0,0,0.8,5.92,0.8)"/></marker><marker id="Arrow2Lend" orient="auto" overflow="visible" refX="0" refY="0"><path id="path3814" fill-rule="evenodd" stroke-linejoin="round" stroke-width=".625" d="M 8.7185878,4.0337352 -2.2072895,0.01601326 8.7185884,-4.0017078 c -1.7454984,2.3720609 -1.7354408,5.6174519 -6e-7,8.035443 z" transform="matrix(-1.1,0,0,-1.1,-1.1,0)"/></marker><marker id="Arrow1Lend" orient="auto" overflow="visible" refX="0" refY="0"><path id="path3796" fill-rule="evenodd" stroke="#000" stroke-width="1pt" d="M 0,0 5,-5 -12.5,0 5,5 0,0 z" transform="matrix(-0.8,0,0,-0.8,-10,0)"/></marker><marker id="Arrow1Lend-7" orient="auto" overflow="visible" refX="0" refY="0"><path id="path3796-8" fill-rule="evenodd" stroke="#000" stroke-width="1pt" d="M 0,0 5,-5 -12.5,0 5,5 0,0 z" transform="matrix(-0.8,0,0,-0.8,-10,0)"/></marker><marker id="Arrow1Lend-5" orient="auto" overflow="visible" refX="0" refY="0"><path id="path3796-0" fill-rule="evenodd" stroke="#000" stroke-width="1pt" d="M 0,0 5,-5 -12.5,0 5,5 0,0 z" transform="matrix(-0.8,0,0,-0.8,-10,0)"/></marker><marker id="Arrow1Lend-6" orient="auto" overflow="visible" refX="0" refY="0"><path id="path3796-7" fill-rule="evenodd" stroke="#000" stroke-width="1pt" d="M 0,0 5,-5 -12.5,0 5,5 0,0 z" transform="matrix(-0.8,0,0,-0.8,-10,0)"/></marker><marker id="Arrow1Lend-77" orient="auto" overflow="visible" refX="0" refY="0"><path id="path3796-4" fill-rule="evenodd" stroke="#000" stroke-width="1pt" d="M 0,0 5,-5 -12.5,0 5,5 0,0 z" transform="matrix(-0.8,0,0,-0.8,-10,0)"/></marker><marker id="Arrow1Lend-9" orient="auto" overflow="visible" refX="0" refY="0"><path id="path3796-2" fill-rule="evenodd" stroke="#000" stroke-width="1pt" d="M 0,0 5,-5 -12.5,0 5,5 0,0 z" transform="matrix(-0.8,0,0,-0.8,-10,0)"/></marker><marker id="TriangleOutM-7" orient="auto" overflow="visible" refX="0" refY="0"><path id="path4034-4" fill-rule="evenodd" stroke="#000" stroke-width="1pt" d="m 5.77,0 -8.65,5 0,-10 8.65,5 z" transform="scale(0.4,0.4)"/></marker><marker id="TriangleOutM-6" orient="auto" overflow="visible" refX="0" refY="0"><path id="path4034-47" fill-rule="evenodd" stroke="#000" stroke-width="1pt" d="m 5.77,0 -8.65,5 0,-10 8.65,5 z" transform="scale(0.4,0.4)"/></marker><marker id="DiamondS-4" orient="auto" overflow="visible" refX="0" refY="0"><path id="path3878-1" fill-rule="evenodd" stroke="#000" stroke-width="1pt" d="M 0,-7.0710768 -7.0710894,0 0,7.0710589 7.0710462,0 0,-7.0710768 z" transform="scale(0.2,0.2)"/></marker><marker id="TriangleOutM-2" orient="auto" overflow="visible" refX="0" refY="0"><path id="path4034-7" fill-rule="evenodd" stroke="#000" stroke-width="1pt" d="m 5.77,0 -8.65,5 0,-10 8.65,5 z" transform="scale(0.4,0.4)"/></marker><marker id="TriangleOutM-1" orient="auto" overflow="visible" refX="0" refY="0"><path id="path4034-8" fill-rule="evenodd" stroke="#000" stroke-width="1pt" d="m 5.77,0 -8.65,5 0,-10 8.65,5 z" transform="scale(0.4,0.4)"/></marker><marker id="DotS-7" orient="auto" overflow="visible" refX="0" refY="0"><path id="path3860-9" fill-rule="evenodd" stroke="#000" stroke-width="1pt" d="m -2.5,-1 c 0,2.76 -2.24,5 -5,5 -2.76,0 -5,-2.24 -5,-5 0,-2.76 2.24,-5 5,-5 2.76,0 5,2.24 5,5 z" transform="matrix(0.2,0,0,0.2,1.48,0.2)"/></marker><marker id="TriangleOutM-0" orient="auto" overflow="visible" refX="0" refY="0"><path id="path4034-1" fill-rule="evenodd" stroke="#000" stroke-width="1pt" d="m 5.77,0 -8.65,5 0,-10 8.65,5 z" transform="scale(0.4,0.4)"/></marker><marker id="DotS-5" orient="auto" overflow="visible" refX="0" refY="0"><path id="path3860-6" fill-rule="evenodd" stroke="#000" stroke-width="1pt" d="m -2.5,-1 c 0,2.76 -2.24,5 -5,5 -2.76,0 -5,-2.24 -5,-5 0,-2.76 2.24,-5 5,-5 2.76,0 5,2.24 5,5 z" transform="matrix(0.2,0,0,0.2,1.48,0.2)"/></marker><marker id="DotM7" orient="auto" overflow="visible" refX="0" refY="0"><path id="path8709" fill="#0a0" fill-rule="evenodd" stroke="#0a0" stroke-width="1pt" d="m -2.5,-1 c 0,2.76 -2.24,5 -5,5 -2.76,0 -5,-2.24 -5,-5 0,-2.76 2.24,-5 5,-5 2.76,0 5,2.24 5,5 z" transform="matrix(0.4,0,0,0.4,2.96,0.4)"/></marker><marker id="TriangleOutM-2n" orient="auto" overflow="visible" refX="0" refY="0"><path id="path8712" fill="#0a0" fill-rule="evenodd" stroke="#0a0" stroke-width="1pt" d="m 5.77,0 -8.65,5 0,-10 8.65,5 z" transform="scale(0.4,0.4)"/></marker><marker id="TriangleOutM-6b" orient="auto" overflow="visible" refX="0" refY="0"><path id="path8989" fill="#0a0" fill-rule="evenodd" stroke="#0a0" stroke-width="1pt" d="m 5.77,0 -8.65,5 0,-10 8.65,5 z" transform="scale(0.4,0.4)"/></marker><marker id="TriangleOutMx" orient="auto" overflow="visible" refX="0" refY="0"><path id="path8992" fill="#0a0" fill-rule="evenodd" stroke="#0a0" stroke-width="1pt" d="m 5.77,0 -8.65,5 0,-10 8.65,5 z" transform="scale(0.4,0.4)"/></marker><marker id="TriangleOutM9" orient="auto" overflow="visible" refX="0" refY="0"><path id="path8995" fill="#0a0" fill-rule="evenodd" stroke="#0a0" stroke-width="1pt" d="m 5.77,0 -8.65,5 0,-10 8.65,5 z" transform="scale(0.4,0.4)"/></marker><marker id="TriangleOutMe" orient="auto" overflow="visible" refX="0" refY="0"><path id="path8998" fill="#0a0" fill-rule="evenodd" stroke="#0a0" stroke-width="1pt" d="m 5.77,0 -8.65,5 0,-10 8.65,5 z" transform="scale(0.4,0.4)"/></marker><marker id="TriangleOutMW" orient="auto" overflow="visible" refX="0" refY="0"><path id="path9001" fill="#0a0" fill-rule="evenodd" stroke="#0a0" stroke-width="1pt" d="m 5.77,0 -8.65,5 0,-10 8.65,5 z" transform="scale(0.4,0.4)"/></marker><marker id="DotSz" orient="auto" overflow="visible" refX="0" refY="0"><path id="path9298" fill="#c00" fill-rule="evenodd" stroke="#c00" stroke-width="1pt" d="m -2.5,-1 c 0,2.76 -2.24,5 -5,5 -2.76,0 -5,-2.24 -5,-5 0,-2.76 2.24,-5 5,-5 2.76,0 5,2.24 5,5 z" transform="matrix(0.2,0,0,0.2,1.48,0.2)"/></marker><marker id="DotSe" orient="auto" overflow="visible" refX="0" refY="0"><path id="path9301" fill="#c00" fill-rule="evenodd" stroke="#c00" stroke-width="1pt" d="m -2.5,-1 c 0,2.76 -2.24,5 -5,5 -2.76,0 -5,-2.24 -5,-5 0,-2.76 2.24,-5 5,-5 2.76,0 5,2.24 5,5 z" transform="matrix(0.2,0,0,0.2,1.48,0.2)"/></marker><marker id="DotSu" orient="auto" overflow="visible" refX="0" refY="0"><path id="path9304" fill="#c00" fill-rule="evenodd" stroke="#c00" stroke-width="1pt" d="m -2.5,-1 c 0,2.76 -2.24,5 -5,5 -2.76,0 -5,-2.24 -5,-5 0,-2.76 2.24,-5 5,-5 2.76,0 5,2.24 5,5 z" transform="matrix(0.2,0,0,0.2,1.48,0.2)"/></marker><marker id="DotMc" orient="auto" overflow="visible" refX="0" refY="0"><path id="path10345" fill="#c00" fill-rule="evenodd" stroke="#c00" stroke-width="1pt" d="m -2.5,-1 c 0,2.76 -2.24,5 -5,5 -2.76,0 -5,-2.24 -5,-5 0,-2.76 2.24,-5 5,-5 2.76,0 5,2.24 5,5 z" transform="matrix(0.4,0,0,0.4,2.96,0.4)"/></marker><marker id="DotMA" orient="auto" overflow="visible" refX="0" refY="0"><path id="path10348" fill="#c00" fill-rule="evenodd" stroke="#c00" stroke-width="1pt" d="m -2.5,-1 c 0,2.76 -2.24,5 -5,5 -2.76,0 -5,-2.24 -5,-5 0,-2.76 2.24,-5 5,-5 2.76,0 5,2.24 5,5 z" transform="matrix(0.4,0,0,0.4,2.96,0.4)"/></marker><marker id="DotMf" orient="auto" overflow="visible" refX="0" refY="0"><path id="path10351" fill="#c00" fill-rule="evenodd" stroke="#c00" stroke-width="1pt" d="m -2.5,-1 c 0,2.76 -2.24,5 -5,5 -2.76,0 -5,-2.24 -5,-5 0,-2.76 2.24,-5 5,-5 2.76,0 5,2.24 5,5 z" transform="matrix(0.4,0,0,0.4,2.96,0.4)"/></marker><marker id="DiamondS-4f" orient="auto" overflow="visible" refX="0" refY="0"><path id="path11172" fill="silver" fill-rule="evenodd" stroke="silver" stroke-width="1pt" d="M 0,-7.0710768 -7.0710894,0 0,7.0710589 7.0710462,0 0,-7.0710768 z" transform="scale(0.2,0.2)"/></marker><marker id="DiamondSO" orient="auto" overflow="visible" refX="0" refY="0"><path id="path11175" fill="silver" fill-rule="evenodd" stroke="silver" stroke-width="1pt" d="M 0,-7.0710768 -7.0710894,0 0,7.0710589 7.0710462,0 0,-7.0710768 z" transform="scale(0.2,0.2)"/></marker><marker id="DiamondSP" orient="auto" overflow="visible" refX="0" refY="0"><path id="path11178" fill="silver" fill-rule="evenodd" stroke="silver" stroke-width="1pt" d="M 0,-7.0710768 -7.0710894,0 0,7.0710589 7.0710462,0 0,-7.0710768 z" transform="scale(0.2,0.2)"/></marker><marker id="DiamondS-4fr" orient="auto" overflow="visible" refX="0" refY="0"><path id="path11511" fill="#b0b0b0" fill-rule="evenodd" stroke="#b0b0b0" stroke-width="1pt" d="M 0,-7.0710768 -7.0710894,0 0,7.0710589 7.0710462,0 0,-7.0710768 z" transform="scale(0.2,0.2)"/></marker><marker id="DiamondSOI" orient="auto" overflow="visible" refX="0" refY="0"><path id="path11514" fill="#b0b0b0" fill-rule="evenodd" stroke="#b0b0b0" stroke-width="1pt" d="M 0,-7.0710768 -7.0710894,0 0,7.0710589 7.0710462,0 0,-7.0710768 z" transform="scale(0.2,0.2)"/></marker><marker id="DiamondSPd" orient="auto" overflow="visible" refX="0" refY="0"><path id="path11517" fill="#b0b0b0" fill-rule="evenodd" stroke="#b0b0b0" stroke-width="1pt" d="M 0,-7.0710768 -7.0710894,0 0,7.0710589 7.0710462,0 0,-7.0710768 z" transform="scale(0.2,0.2)"/></marker><marker id="TriangleOutMe9" orient="auto" overflow="visible" refX="0" refY="0"><path id="path11883" fill="#000" fill-rule="evenodd" stroke="#000" stroke-width="1pt" d="m 5.77,0 -8.65,5 0,-10 8.65,5 z" transform="scale(0.4,0.4)"/></marker><marker id="TriangleOutMW-2" orient="auto" overflow="visible" refX="0" refY="0"><path id="path9001-1" fill="#0a0" fill-rule="evenodd" stroke="#0a0" stroke-width="1pt" d="m 5.77,0 -8.65,5 0,-10 8.65,5 z" transform="scale(0.4,0.4)"/></marker><marker id="DotMc-3" orient="auto" overflow="visible" refX="0" refY="0"><path id="path10345-9" fill="#c00" fill-rule="evenodd" stroke="#c00" stroke-width="1pt" d="m -2.5,-1 c 0,2.76 -2.24,5 -5,5 -2.76,0 -5,-2.24 -5,-5 0,-2.76 2.24,-5 5,-5 2.76,0 5,2.24 5,5 z" transform="matrix(0.4,0,0,0.4,2.96,0.4)"/></marker><marker id="TriangleOutM-03" orient="auto" overflow="visible" refX="0" refY="0"><path id="path4034-0" fill-rule="evenodd" stroke="#000" stroke-width="1pt" d="m 5.77,0 -8.65,5 0,-10 8.65,5 z" transform="scale(0.4,0.4)"/></marker><marker id="DiamondSPd-4" orient="auto" overflow="visible" refX="0" refY="0"><path id="path11517-1" fill="#b0b0b0" fill-rule="evenodd" stroke="#b0b0b0" stroke-width="1pt" d="M 0,-7.0710768 -7.0710894,0 0,7.0710589 7.0710462,0 0,-7.0710768 z" transform="scale(0.2,0.2)"/></marker><marker id="TriangleOutM-9" orient="auto" overflow="visible" refX="0" refY="0"><path id="path4034-2" fill-rule="evenodd" stroke="#000" stroke-width="1pt" d="m 5.77,0 -8.65,5 0,-10 8.65,5 z" transform="scale(0.4,0.4)"/></marker></defs><metadata id="metadata7"/><g id="layer1" display="inline" transform="translate(-39,917.63782)"><rect id="rect2987" width="280" height="320" x="240" y="-897.638" fill="#b3b3b3" fill-opacity="1" fill-rule="nonzero" stroke="none" rx=".5" ry=".5"/><rect id="rect2991" width="240" height="40" x="260" y="-877.638" fill="#fff" fill-opacity="1" fill-rule="nonzero" stroke="none" rx=".5" ry=".5"/><rect id="rect3761" width="120" height="80" x="260" y="-797.638" fill="#ccc" fill-opacity="1" fill-rule="nonzero" stroke="none" rx=".5" ry=".5"/><rect id="rect3763" width="100" height="80" x="400" y="-797.638" fill="#ccc" fill-opacity="1" fill-rule="nonzero" stroke="none" rx=".5" ry=".5"/><rect id="rect3765" width="160" height="100" x="340" y="-697.638" fill="#ccc" fill-opacity="1" fill-rule="nonzero" stroke="none" rx=".5" ry=".5"/><rect id="rect3767" width="60" height="100" x="260" y="-697.638" fill="#ccc" fill-opacity="1" fill-rule="nonzero" stroke="#a0a0a0" stroke-opacity="1" rx=".5" ry=".5"/><rect id="rect3783" width="280" height="120" x="240" y="-497.638" fill="#fea" fill-opacity="1" fill-rule="nonzero" stroke="none" rx=".5" ry=".5"/><rect id="rect3783-4" width="280" height="120" x="240" y="102.362" fill="#fea" fill-opacity="1" fill-rule="nonzero" stroke="none" rx=".5" ry=".5"/><path id="path4799" fill="none" stroke="#b0b0b0" stroke-dasharray="none" stroke-linecap="butt" stroke-linejoin="miter" stroke-miterlimit="4" stroke-opacity="1" stroke-width="4" d="m 280,-857.63782 -180,0 0,1399.99999"/><path id="path4987" fill="none" stroke="#0a0" stroke-dasharray="none" stroke-linecap="butt" stroke-linejoin="miter" stroke-miterlimit="4" stroke-opacity="1" stroke-width="4" marker-end="url(#TriangleOutM-2n)" marker-start="url(#DotM7)" d="m 710,-507.63782 c 0,346.66667 0,823.33332 0,1169.99999 l -280,0"/><text id="text5171" x="380" y="-447.638" fill="#000" fill-opacity="1" stroke="none" font-family="Sans" font-size="24" font-style="normal" font-weight="normal" letter-spacing="0" text-anchor="middle" word-spacing="0" xml:space="preserve" style="text-align:center;line-height:125%"><tspan id="tspan5175" x="380" y="-447.638">context</tspan><tspan id="tspan7956" x="380" y="-417.638">whitelisted?</tspan></text><text id="text5171-7" x="390" y="152.362" fill="#000" fill-opacity="1" stroke="none" font-family="Sans" font-size="24" font-style="normal" font-weight="normal" letter-spacing="0" text-anchor="middle" word-spacing="0" xml:space="preserve" style="text-align:center;line-height:125%"><tspan id="tspan5384" x="390" y="152.362">local dynamic</tspan><tspan id="tspan5388" x="390" y="182.362">filtering rule?</tspan></text><path id="path5390" fill="none" stroke="#0a0" stroke-dasharray="none" stroke-linecap="butt" stroke-linejoin="miter" stroke-miterlimit="4" stroke-opacity="1" stroke-width="4" marker-end="url(#TriangleOutMW)" d="m 519.99999,142.36217 180,0" opacity=".96"/><text id="text5574" x="550" y="132.362" fill="#000" fill-opacity="1" stroke="none" font-family="Sans" font-size="16" font-style="normal" font-weight="normal" letter-spacing="0" text-anchor="middle" word-spacing="0" xml:space="preserve" style="text-align:center;line-height:125%"><tspan id="tspan5576" x="550" y="132.362">allow</tspan></text><path id="path5578" fill="none" stroke="#000" stroke-dasharray="none" stroke-linecap="butt" stroke-linejoin="miter" stroke-miterlimit="4" stroke-opacity="1" stroke-width="4" marker-end="url(#TriangleOutM)" d="m 420,-607.63782 0,100"/><text id="text5946" x="440.898" y="-357.864" fill="#000" fill-opacity="1" stroke="none" font-family="Sans" font-size="16" font-style="normal" font-weight="normal" letter-spacing="0" text-anchor="middle" word-spacing="0" xml:space="preserve" style="text-align:center;line-height:125%"><tspan id="tspan5948" x="440.898" y="-357.864">no</tspan></text><text id="text5946-2" x="548.484" y="201.323" fill="#000" fill-opacity="1" stroke="none" font-family="Sans" font-size="16" font-style="normal" font-weight="normal" letter-spacing="0" text-anchor="middle" word-spacing="0" xml:space="preserve" style="text-align:center;line-height:125%"><tspan id="tspan5948-1" x="548.484" y="201.323">noop</tspan></text><path id="path5390-8" fill="none" stroke="#000" stroke-dasharray="none" stroke-linecap="butt" stroke-linejoin="miter" stroke-miterlimit="4" stroke-opacity="1" stroke-width="4" marker-end="url(#TriangleOutM)" marker-start="url(#DotM)" d="m 610,-507.63782 c 0,173.33333 0,796.66666 0,969.99999 l -180,0"/><text id="text5946-8" x="440" y="242.362" fill="#000" fill-opacity="1" stroke="none" font-family="Sans" font-size="16" font-style="normal" font-weight="normal" letter-spacing="0" text-anchor="middle" word-spacing="0" xml:space="preserve" style="text-align:center;line-height:125%"><tspan id="tspan5948-6" x="440" y="242.362">no</tspan></text><rect id="rect3783-4-3" width="280" height="120" x="240" y="302.362" fill="#fea" fill-opacity="1" fill-rule="nonzero" stroke="none" rx=".5" ry=".5"/><path id="path5762-6" fill="none" stroke="#000" stroke-dasharray="none" stroke-linecap="butt" stroke-linejoin="miter" stroke-miterlimit="4" stroke-opacity="1" stroke-width="4" marker-end="url(#TriangleOutM)" marker-start="none" d="M 419.99999,222.36217 420,292.36218"/><text id="text5171-7-9" x="390" y="352.362" fill="#000" fill-opacity="1" stroke="none" font-family="Sans" font-size="24" font-style="normal" font-weight="normal" letter-spacing="0" text-anchor="middle" word-spacing="0" xml:space="preserve" style="text-align:center;line-height:125%"><tspan id="tspan5384-4" x="390" y="352.362">global dynamic</tspan><tspan id="tspan5388-3" x="390" y="382.362">filtering rule?</tspan></text><path id="path5390-1" fill="none" stroke="#0a0" stroke-dasharray="none" stroke-linecap="butt" stroke-linejoin="miter" stroke-miterlimit="4" stroke-opacity="1" stroke-width="4" marker-end="url(#TriangleOutM9)" d="m 519.89843,342.13559 180.10156,0.22658"/><text id="text5574-8" x="550" y="332.362" fill="#000" fill-opacity="1" stroke="none" font-family="Sans" font-size="16" font-style="normal" font-weight="normal" letter-spacing="0" text-anchor="middle" word-spacing="0" xml:space="preserve" style="text-align:center;line-height:125%"><tspan id="tspan5576-4" x="550" y="332.362">allow</tspan></text><text id="text5946-2-9" x="548.484" y="401.323" fill="#000" fill-opacity="1" stroke="none" font-family="Sans" font-size="16" font-style="normal" font-weight="normal" letter-spacing="0" text-anchor="middle" word-spacing="0" xml:space="preserve" style="text-align:center;line-height:125%"><tspan id="tspan5948-1-9" x="548.484" y="401.323">noop</tspan></text><path id="path5390-8-2" fill="none" stroke="#000" stroke-dasharray="none" stroke-linecap="butt" stroke-linejoin="miter" stroke-miterlimit="4" stroke-opacity="1" stroke-width="4" marker-end="url(#TriangleOutM-6)" d="M 519.99999,382.36216 600,382.36218"/><text id="text5946-8-3" x="440" y="442.362" fill="#000" fill-opacity="1" stroke="none" font-family="Sans" font-size="16" font-style="normal" font-weight="normal" letter-spacing="0" text-anchor="middle" word-spacing="0" xml:space="preserve" style="text-align:center;line-height:125%"><tspan id="tspan6526" x="440" y="442.362">no</tspan></text><rect id="rect3783-4-31" width="280" height="120" x="240" y="502.362" fill="#fea" fill-opacity="1" fill-rule="nonzero" stroke="none" rx=".5" ry=".5"/><path id="path5762-6-3" fill="none" stroke="#000" stroke-dasharray="none" stroke-linecap="butt" stroke-linejoin="miter" stroke-miterlimit="4" stroke-opacity="1" stroke-width="4" marker-end="url(#TriangleOutM)" d="M 419.99999,422.36216 420,492.36218"/><text id="text5171-7-1" x="380" y="562.362" fill="#000" fill-opacity="1" stroke="none" font-family="Sans" font-size="24" font-style="normal" font-weight="normal" letter-spacing="0" text-anchor="middle" word-spacing="0" xml:space="preserve" style="text-align:center;line-height:125%"><tspan id="tspan5388-5" x="380" y="562.362">static filtering?</tspan></text><path id="path8567" fill="none" stroke="#b0b0b0" stroke-dasharray="none" stroke-linecap="butt" stroke-linejoin="miter" stroke-miterlimit="4" stroke-opacity="1" stroke-width="4" marker-end="url(#DiamondSPd)" d="m 99.999995,142.36217 139.999995,0"/><path id="path8761" fill="none" stroke="#b0b0b0" stroke-dasharray="none" stroke-linecap="butt" stroke-linejoin="miter" stroke-miterlimit="4" stroke-opacity="1" stroke-width="4" marker-end="url(#DiamondS-4fr)" d="m 100,490 140,0" transform="translate(0,-947.63782)"/><rect id="rect3783-7" width="280" height="120" x="240" y="-97.638" fill="#fea" fill-opacity="1" fill-rule="nonzero" stroke="none" rx=".5" ry=".5"/><text id="text5171-8" x="380" y="-47.638" fill="#000" fill-opacity="1" stroke="none" font-family="Sans" font-size="24" font-style="normal" font-weight="normal" letter-spacing="0" text-anchor="middle" word-spacing="0" xml:space="preserve" style="text-align:center;line-height:125%"><tspan style="-inkscape-font-specification:Sans Italic" id="tspan5175-2" x="380" y="-47.638" font-style="italic">advanced user</tspan><tspan id="tspan5410" x="380" y="-17.638">mode?</tspan></text><text id="text5946-9" x="440" y="42.362" fill="#000" fill-opacity="1" stroke="none" font-family="Sans" font-size="16" font-style="normal" font-weight="normal" letter-spacing="0" text-anchor="middle" word-spacing="0" xml:space="preserve" style="text-align:center;line-height:125%"><tspan id="tspan5948-62" x="440" y="42.362">yes</tspan></text><path id="path5762-0" fill="none" stroke="#000" stroke-dasharray="none" stroke-linecap="butt" stroke-linejoin="miter" stroke-miterlimit="4" stroke-opacity="1" stroke-width="4" marker-end="url(#TriangleOutM)" d="m 420,22.36218 0,70"/><path id="path5390-5" fill="none" stroke="#000" stroke-dasharray="none" stroke-linecap="butt" stroke-linejoin="miter" stroke-miterlimit="4" stroke-opacity="1" stroke-width="4" marker-end="url(#TriangleOutM)" d="m 520,182.36218 80,0" opacity=".96"/><text id="text5946-7" x="538.516" y="1.323" fill="#000" fill-opacity="1" stroke="none" font-family="Sans" font-size="16" font-style="normal" font-weight="normal" letter-spacing="0" text-anchor="middle" word-spacing="0" xml:space="preserve" style="text-align:center;line-height:125%"><tspan id="tspan5948-9" x="538.516" y="1.323">no</tspan></text><path id="path5695" fill="none" stroke="#000" stroke-dasharray="none" stroke-linecap="butt" stroke-linejoin="miter" stroke-miterlimit="4" stroke-opacity="1" stroke-width="4" marker-end="url(#TriangleOutM-6)" d="m 520,-17.63782 80,0"/><path id="path8567-7" fill="none" stroke="#b0b0b0" stroke-dasharray="none" stroke-linecap="butt" stroke-linejoin="miter" stroke-miterlimit="4" stroke-opacity="1" stroke-width="4" marker-end="url(#DiamondSOI)" d="m 100,542.36218 140,0"/><path id="path6779" fill="none" stroke="#0a0" stroke-dasharray="none" stroke-linecap="butt" stroke-linejoin="miter" stroke-miterlimit="4" stroke-opacity="1" stroke-width="4" marker-end="url(#TriangleOutM-6b)" d="m 520,490 180,0" transform="translate(0,-947.63782)"/><path id="path5762-6-3-1" fill="none" stroke="#000" stroke-dasharray="none" stroke-linecap="butt" stroke-linejoin="miter" stroke-miterlimit="4" stroke-opacity="1" stroke-width="4" marker-end="url(#TriangleOutMe9)" d="m 420,622.36218 0,150"/><text id="text5946-8-3-5" x="460" y="642.362" fill="#000" fill-opacity="1" stroke="none" font-family="Sans" font-size="16" font-style="normal" font-weight="normal" letter-spacing="0" text-anchor="middle" word-spacing="0" xml:space="preserve" style="text-align:center;line-height:125%"><tspan id="tspan6526-8" x="460" y="642.362">no filter</tspan></text><text id="text5171-77" x="180" y="-867.638" fill="#000" fill-opacity="1" stroke="none" display="inline" font-family="Sans" font-size="24" font-style="normal" font-weight="normal" letter-spacing="0" text-anchor="middle" word-spacing="0" xml:space="preserve" style="text-align:center;line-height:125%"><tspan id="tspan5175-3" x="180" y="-867.638">context</tspan></text><text id="text5171-77-8" x="419.316" y="-657.978" fill="#666" fill-opacity="1" stroke="none" display="inline" font-family="Sans" font-size="24" font-style="normal" font-weight="normal" letter-spacing="0" text-anchor="middle" word-spacing="0" xml:space="preserve" style="text-align:center;line-height:125%"><tspan id="tspan5175-3-6" x="419.316" y="-657.978">URL of</tspan><tspan id="tspan7988" x="419.316" y="-627.978">resource</tspan></text><text id="text5171-77-6" x="380" y="-847.638" fill="#666" fill-opacity="1" stroke="none" display="inline" font-family="Sans" font-size="24" font-style="normal" font-weight="normal" letter-spacing="0" text-anchor="middle" word-spacing="0" xml:space="preserve" style="text-align:center;line-height:125%"><tspan id="tspan5175-3-2" x="380" y="-847.638">URL of page</tspan></text><path id="path5762-6-9" fill="none" stroke="#c00" stroke-dasharray="none" stroke-linecap="butt" stroke-linejoin="miter" stroke-miterlimit="4" stroke-opacity="1" stroke-width="4" marker-end="url(#DotMc)" marker-start="none" d="m 340,222.36218 0,40" display="inline"/><text id="text5946-8-7" x="310" y="242.362" fill="#000" fill-opacity="1" stroke="none" display="inline" font-family="Sans" font-size="16" font-style="normal" font-weight="normal" letter-spacing="0" text-anchor="middle" word-spacing="0" xml:space="preserve" style="text-align:center;line-height:125%"><tspan id="tspan5948-6-0" x="310" y="242.362">block</tspan></text><path id="path5762-6-9-0" fill="none" stroke="#c00" stroke-dasharray="none" stroke-linecap="butt" stroke-linejoin="miter" stroke-miterlimit="4" stroke-opacity="1" stroke-width="4" marker-end="url(#DotMA)" marker-start="none" d="m 340,422.36218 0,40" display="inline"/><text id="text5946-8-7-3" x="310" y="442.362" fill="#000" fill-opacity="1" stroke="none" display="inline" font-family="Sans" font-size="16" font-style="normal" font-weight="normal" letter-spacing="0" text-anchor="middle" word-spacing="0" xml:space="preserve" style="text-align:center;line-height:125%"><tspan id="tspan5948-6-0-3" x="310" y="442.362">block</tspan></text><path id="path5390-1-2" fill="none" stroke="#0a0" stroke-dasharray="none" stroke-linecap="butt" stroke-linejoin="miter" stroke-miterlimit="4" stroke-opacity="1" stroke-width="4" marker-end="url(#TriangleOutMx)" d="m 520,542.36218 180,0" display="inline"/><text id="text5946-2-9-9" x="590" y="532.362" fill="#000" fill-opacity="1" stroke="none" display="inline" font-family="Sans" font-size="16" font-style="normal" font-weight="normal" letter-spacing="0" text-anchor="middle" word-spacing="0" xml:space="preserve" style="text-align:center;line-height:125%"><tspan id="tspan5948-1-9-5" x="590" y="532.362">exception filter</tspan></text><path id="path5762-6-9-0-9" fill="none" stroke="#c00" stroke-dasharray="none" stroke-linecap="butt" stroke-linejoin="miter" stroke-miterlimit="4" stroke-opacity="1" stroke-width="4" marker-end="url(#DotMf)" marker-start="none" d="m 340,622.36218 0,40" display="inline"/><text id="text5946-8-7-3-2" x="290" y="642.362" fill="#000" fill-opacity="1" stroke="none" display="inline" font-family="Sans" font-size="16" font-style="normal" font-weight="normal" letter-spacing="0" text-anchor="middle" word-spacing="0" xml:space="preserve" style="text-align:center;line-height:125%"><tspan id="tspan5948-6-0-3-0" x="290" y="642.362">block filter</tspan></text><text id="text5946-8-7-3-2-4" x="420" y="802.362" fill="#000" fill-opacity="1" stroke="none" display="inline" font-family="Sans" font-size="24" font-style="normal" font-weight="normal" letter-spacing="0" text-anchor="middle" word-spacing="0" xml:space="preserve" style="text-align:center;line-height:125%"><tspan id="tspan5948-6-0-3-0-2" x="420" y="802.362">remote server</tspan></text><text id="text5946-9-7" x="540" y="-467.638" fill="#000" fill-opacity="1" stroke="none" display="inline" font-family="Sans" font-size="16" font-style="normal" font-weight="normal" letter-spacing="0" text-anchor="middle" word-spacing="0" xml:space="preserve" style="text-align:center;line-height:125%"><tspan id="tspan5948-62-1" x="540" y="-467.638">yes</tspan></text><path id="path12147" fill="#ccc" stroke="gray" stroke-dasharray="8 8" stroke-dashoffset="0" stroke-linecap="butt" stroke-linejoin="miter" stroke-miterlimit="4" stroke-opacity="1" stroke-width="2" d="m 750,702.36218 -690,0"/><path id="path12147-5" fill="#ccc" stroke="gray" stroke-dasharray="8 8" stroke-dashoffset="0" stroke-linecap="butt" stroke-linejoin="miter" stroke-miterlimit="4" stroke-opacity="1" stroke-width="2" d="m 750,-537.63782 -690,0" display="inline"/><text id="text5171-77-67" x="620" y="-867.638" fill="#000" fill-opacity="1" stroke="none" display="inline" font-family="Sans" font-size="24" font-style="normal" font-weight="normal" letter-spacing="0" text-anchor="middle" word-spacing="0" xml:space="preserve" style="text-align:center;line-height:125%"><tspan id="tspan5175-3-1" x="620" y="-867.638">your browser</tspan></text><rect id="rect3783-7-4" width="280" height="120" x="240" y="-297.638" fill="#fea" fill-opacity="1" fill-rule="nonzero" stroke="none" display="inline" rx=".5" ry=".5"/><path id="path5762" fill="none" stroke="#000" stroke-dasharray="none" stroke-linecap="butt" stroke-linejoin="miter" stroke-miterlimit="4" stroke-opacity="1" stroke-width="4" marker-end="url(#TriangleOutM)" d="m 420,-377.63782 0,70"/><text id="text5171-8-9" x="380" y="-247.638" fill="#000" fill-opacity="1" stroke="none" display="inline" font-family="Sans" font-size="24" font-style="normal" font-weight="normal" letter-spacing="0" text-anchor="middle" word-spacing="0" xml:space="preserve" style="text-align:center;line-height:125%"><tspan id="tspan5410-4" x="380" y="-247.638">url filtering rule?</tspan></text><path id="path5390-2" fill="none" stroke="#0a0" stroke-dasharray="none" stroke-linecap="butt" stroke-linejoin="miter" stroke-miterlimit="4" stroke-opacity="1" stroke-width="4" marker-end="url(#TriangleOutMW)" d="m 520,-257.63783 180,0" display="inline" opacity=".96"/><text id="text5574-7" x="550" y="-267.638" fill="#000" fill-opacity="1" stroke="none" display="inline" font-family="Sans" font-size="16" font-style="normal" font-weight="normal" letter-spacing="0" text-anchor="middle" word-spacing="0" xml:space="preserve" style="text-align:center;line-height:125%"><tspan id="tspan5576-8" x="550" y="-267.638">allow</tspan></text><path id="path5762-6-9-9" fill="none" stroke="#c00" stroke-dasharray="none" stroke-linecap="butt" stroke-linejoin="miter" stroke-miterlimit="4" stroke-opacity="1" stroke-width="4" marker-end="url(#DotMc)" marker-start="none" d="m 340,-177.63783 0,40" display="inline"/><text id="text5946-8-7-7" x="310" y="-157.638" fill="#000" fill-opacity="1" stroke="none" display="inline" font-family="Sans" font-size="16" font-style="normal" font-weight="normal" letter-spacing="0" text-anchor="middle" word-spacing="0" xml:space="preserve" style="text-align:center;line-height:125%"><tspan id="tspan5948-6-0-4" x="310" y="-157.638">block</tspan></text><text id="text5946-5" x="440.898" y="-157.864" fill="#000" fill-opacity="1" stroke="none" display="inline" font-family="Sans" font-size="16" font-style="normal" font-weight="normal" letter-spacing="0" text-anchor="middle" word-spacing="0" xml:space="preserve" style="text-align:center;line-height:125%"><tspan id="tspan5948-8" x="440.898" y="-157.864">no</tspan></text><path id="path5762-3" fill="none" stroke="#000" stroke-dasharray="none" stroke-linecap="butt" stroke-linejoin="miter" stroke-miterlimit="4" stroke-opacity="1" stroke-width="4" marker-end="url(#TriangleOutM)" d="m 420,-177.63783 0,70" display="inline"/><path id="path8567-2" fill="none" stroke="#b0b0b0" stroke-dasharray="none" stroke-linecap="butt" stroke-linejoin="miter" stroke-miterlimit="4" stroke-opacity="1" stroke-width="4" marker-end="url(#DiamondSPd)" d="m 100,-257.63782 140,0" display="inline"/><text id="text5946-2-8" x="548.484" y="-198.677" fill="#000" fill-opacity="1" stroke="none" display="inline" font-family="Sans" font-size="16" font-style="normal" font-weight="normal" letter-spacing="0" text-anchor="middle" word-spacing="0" xml:space="preserve" style="text-align:center;line-height:125%"><tspan id="tspan5948-1-5" x="548.484" y="-198.677">noop</tspan></text><path id="path5390-5-3" fill="none" stroke="#000" stroke-dasharray="none" stroke-linecap="butt" stroke-linejoin="miter" stroke-miterlimit="4" stroke-opacity="1" stroke-width="4" marker-end="url(#TriangleOutM)" d="m 520,-217.63783 80,0" display="inline" opacity=".96"/></g></svg>