<svg xmlns="http://www.w3.org/2000/svg" xmlns:svg="http://www.w3.org/2000/svg" xmlns:xlink="http://www.w3.org/1999/xlink" id="svg2" width="128" height="128" version="1.1"><defs id="defs4"><linearGradient id="linearGradient6915"><stop id="stop6917" offset="0" stop-color="#600000" stop-opacity="1"/><stop id="stop6919" offset="1" stop-color="#700000" stop-opacity="1"/></linearGradient><linearGradient id="linearGradient6898"><stop id="stop6900" offset="0" stop-color="#90000f" stop-opacity=".941"/><stop id="stop6902" offset="1" stop-color="maroon" stop-opacity="1"/></linearGradient><linearGradient id="linearGradient3770"><stop id="stop3772" offset="0" stop-color="#000" stop-opacity="1"/><stop id="stop3774" offset="1" stop-color="#000" stop-opacity="0"/></linearGradient><radialGradient id="radialGradient3776" cx="82.145" cy="81.055" r="22.573" fx="82.145" fy="81.055" gradientTransform="matrix(1,0,0,1.2584318,0,-20.947238)" gradientUnits="userSpaceOnUse" xlink:href="#linearGradient3770"/></defs><metadata id="metadata7"/><g id="layer3" display="inline" opacity="1"><g id="g6907" fill="maroon" fill-opacity="1" stroke="#fff" stroke-dasharray="none" stroke-linecap="round" stroke-linejoin="round" stroke-miterlimit="4" stroke-opacity="1" stroke-width="1.602" display="inline" transform="matrix(-0.6945203,0,0,0.56109687,375.02964,-247.42947)"><path id="path6909" fill="maroon" fill-opacity="1" fill-rule="nonzero" stroke="#fff" stroke-dasharray="none" stroke-linecap="round" stroke-linejoin="round" stroke-miterlimit="4" stroke-opacity="1" stroke-width="1.602" d="m 447.83376,669.09921 c -80.63119,-57.03115 -80.63119,-57.03115 -80.63119,-199.60903 34.55623,0 46.07497,0 80.63119,-28.51558 m 0,228.12461 c 80.6312,-57.03115 80.6312,-57.03115 80.6312,-199.60903 -34.55623,0 -46.07497,0 -80.6312,-28.51558"/></g></g><g id="layer5" display="inline" transform="translate(-17.872548,-17.32535)"><ellipse font-size="100.219" style="text-align:center;line-height:125%;-inkscape-font-specification:Ubuntu" id="path2996-3" cx="102.123" cy="81.325" fill="none" stroke="#fff" stroke-dasharray="none" stroke-miterlimit="4" stroke-opacity="1" stroke-width="6" d="m 114.12254,81.325356 c 0,6.627417 -5.37258,12 -12,12 -6.627413,0 -11.999996,-5.372583 -11.999996,-12 0,-6.627417 5.372583,-12 11.999996,-12 6.62742,0 12,5.372583 12,12 z" display="inline" font-family="Ubuntu" font-stretch="normal" font-style="normal" font-variant="normal" font-weight="normal" letter-spacing="0" rx="12" ry="12" text-anchor="middle" transform="matrix(1.3333335,0,0,1.3333334,-42.290862,-31.108461)" word-spacing="0"/><g id="text3778" fill="#fff" fill-opacity="1" stroke="#fff" stroke-dasharray="none" stroke-miterlimit="4" stroke-opacity="1" stroke-width="2" font-family="Sans" font-size="73.201" font-style="normal" font-weight="normal" letter-spacing="0" transform="scale(1.0018026,0.99820067)" word-spacing="0" style="line-height:125%"><path id="path3783" fill="#fff" stroke="#fff" stroke-dasharray="none" stroke-linecap="square" stroke-linejoin="miter" stroke-miterlimit="4" stroke-width="0" d="m 81.72523,81.471945 c 0,11.019828 -4.991003,16.028841 -15.97121,16.028841 -10.980207,0 -15.97121,-5.009013 -15.97121,-16.028841 l 0,-24.043262 7.985605,0 0,24.043262 c 0,7.012618 0.9982,8.014421 7.985605,8.014421 6.987404,0 7.985605,-1.001803 7.985605,-8.014421 l 0,-24.043262 7.985605,0 z" font-family="Ubuntu" font-stretch="normal" font-variant="normal" style="-inkscape-font-specification:Ubuntu"/></g></g></svg>