<svg xmlns="http://www.w3.org/2000/svg" xmlns:svg="http://www.w3.org/2000/svg" xmlns:xlink="http://www.w3.org/1999/xlink" id="svg2" width="16" height="16" version="1.1"><defs id="defs4"><linearGradient id="linearGradient6915"><stop id="stop6917" offset="0" stop-color="#600000" stop-opacity="1"/><stop id="stop6919" offset="1" stop-color="#700000" stop-opacity="1"/></linearGradient><linearGradient id="linearGradient6898"><stop id="stop6900" offset="0" stop-color="#90000f" stop-opacity=".941"/><stop id="stop6902" offset="1" stop-color="maroon" stop-opacity="1"/></linearGradient><linearGradient id="linearGradient3770"><stop id="stop3772" offset="0" stop-color="#000" stop-opacity="1"/><stop id="stop3774" offset="1" stop-color="#000" stop-opacity="0"/></linearGradient><radialGradient id="radialGradient3776" cx="82.145" cy="81.055" r="22.573" fx="82.145" fy="81.055" gradientTransform="matrix(1,0,0,1.2584318,0,-20.947238)" gradientUnits="userSpaceOnUse" xlink:href="#linearGradient3770"/></defs><metadata id="metadata7"/><g id="layer5" display="inline" transform="translate(-17.872548,-129.32535)"><g id="g3824" transform="matrix(0.125,0,0,0.12562955,15.638479,127.10848)"><g id="g6907" fill="maroon" fill-opacity="1" stroke="#fff" stroke-dasharray="none" stroke-linecap="round" stroke-linejoin="round" stroke-miterlimit="4" stroke-opacity="1" stroke-width="1.602" display="inline" transform="matrix(-0.6945203,0,0,0.56109687,392.90219,-230.10412)"><path id="path6909" fill="maroon" fill-opacity="1" fill-rule="nonzero" stroke="#fff" stroke-dasharray="none" stroke-linecap="round" stroke-linejoin="round" stroke-miterlimit="4" stroke-opacity="1" stroke-width="1.602" d="m 447.83376,669.09921 c -80.63119,-57.03115 -80.63119,-128.32009 -80.63119,-199.60903 34.55623,0 46.07497,0 80.63119,-28.51558 m 0,228.12461 c 80.6312,-57.03115 80.6312,-128.32009 80.6312,-199.60903 -34.55623,0 -46.07497,0 -80.6312,-28.51558"/></g><ellipse font-size="100.219" style="text-align:center;line-height:125%;-inkscape-font-specification:Ubuntu" id="path2996-3" cx="102.123" cy="81.325" fill="none" stroke="#fff" stroke-dasharray="none" stroke-miterlimit="4" stroke-opacity="1" stroke-width="6" display="inline" font-family="Ubuntu" font-stretch="normal" font-style="normal" font-variant="normal" font-weight="normal" letter-spacing="0" rx="12" ry="12" text-anchor="middle" transform="matrix(1.3333335,0,0,1.3333334,-42.290862,-31.108461)" word-spacing="0"/><g id="text3778" fill="#fff" fill-opacity="1" stroke="#fff" stroke-miterlimit="4" stroke-opacity="1" stroke-width="1.2" font-family="Sans" font-size="73.201" font-style="normal" font-weight="normal" letter-spacing="0" transform="scale(1.0018026,0.99820067)" word-spacing="0" style="line-height:125%"><path style="-inkscape-font-specification:Ubuntu" id="path3783" fill="#fff" stroke="#fff" d="m 81.126317,94.996469 c -1.561665,0.390408 -3.635702,0.805216 -6.222119,1.244424 -2.537675,0.439208 -5.490129,0.658812 -8.857368,0.658812 -2.928074,0 -5.392519,-0.414808 -7.393341,-1.244423 -2.00085,-0.878416 -3.611279,-2.098438 -4.831292,-3.66007 -1.220031,-1.561624 -2.098447,-3.391657 -2.63525,-5.490104 -0.536816,-2.14723 -0.805221,-4.514072 -0.805215,-7.100536 l 0,-21.374806 6.807729,0 0,19.910779 c -1.2e-5,4.636101 0.732001,7.954561 2.196042,9.955389 1.464012,2.000844 3.928456,3.001262 7.393341,3.001257 0.731991,5e-6 1.488405,-0.0244 2.269243,-0.0732 0.78079,-0.0488 1.512803,-0.0976 2.196042,-0.146403 0.683186,-0.0976 1.293197,-0.170798 1.830034,-0.219604 0.585583,-0.0976 1.00039,-0.195198 1.244424,-0.292806 l 0,-32.135411 6.80773,0 0,36.966703" font-family="Ubuntu" font-stretch="normal" font-variant="normal"/></g></g></g></svg>